PathFileType	4	(X/Y/Z)	SUBJ59_1_walk_RCNL2025.trc
DataRate	CameraRate	NumFrames	NumMarkers	Units	OrigDataRate	OrigDataStartFrame	OrigNumFrames
100	100	10	25	mm	100	216	345
Frame#	Time	R_Shoulder			L_Shoulder			C7			J_Notch			R_Elbow			L_Elbow			R_Wrist			L_Wrist			R_Asis			L_Asis			Sacral			Thoracic			Sternum			R_Thigh_Lateral			R_Knee_Lateral			R_Shank_Lateral			R_Ankle_Lateral			R_Heel			R_Toe			L_Thigh_Lateral			L_Knee_Lateral			L_Shank_Lateral			L_Ankle_Lateral			L_Heel			L_Toe		
		X1	Y1	Z1	X2	Y2	Z2	X3	Y3	Z3	X4	Y4	Z4	X5	Y5	Z5	X6	Y6	Z6	X7	Y7	Z7	X8	Y8	Z8	X9	Y9	Z9	X10	Y10	Z10	X11	Y11	Z11	X12	Y12	Z12	X13	Y13	Z13	X14	Y14	Z14	X15	Y15	Z15	X16	Y16	Z16	X17	Y17	Z17	X18	Y18	Z18	X19	Y19	Z19	X20	Y20	Z20	X21	Y21	Z21	X22	Y22	Z22	X23	Y23	Z23	X24	Y24	Z24	X25	Y25	Z25
216	2.15000000	24.368807	1461.649780	476.750427	29.529142	1475.693848	80.972069	-67.695053	1556.502563	274.175873	94.129982	1454.794556	278.554352	-12.959155	1157.001953	591.007446	-16.982674	1135.355225	-12.159236	66.232975	888.114349	595.653656	9.062546	869.713654	8.988711	67.044159	990.150085	413.557892	83.386894	993.265991	188.502090	-141.168091	1025.762329	282.327179	-138.059784	1340.455322	263.296143	143.695511	1260.485962	282.993378	-20.139809	599.765747	519.369629	-40.876228	503.494965	469.862274	-165.145706	355.995850	549.540283	-350.634583	194.304733	439.203705	-381.324890	216.790863	392.459076	-267.317627	62.804337	393.864532	31.980156	607.129578	105.356865	54.178165	501.419708	165.733124	64.968353	303.383118	109.243629	76.249123	76.988411	192.407593	32.745193	53.897900	247.290649	237.656387	42.432457	237.329559
217	2.16000000	32.540272	1462.456177	476.131958	40.117447	1476.397583	80.175919	-58.364376	1557.329224	272.709808	103.572067	1455.824219	277.767334	-6.933379	1157.276123	589.415710	-1.950546	1135.798828	-13.959186	69.864683	887.581665	593.814484	27.115826	870.529724	8.218496	77.192459	990.774231	411.918030	92.538300	993.964233	186.667297	-131.739487	1026.381470	281.302307	-128.351166	1341.269775	261.442810	153.423050	1261.553223	282.106201	-1.484469	600.491089	518.950439	-19.441210	503.941956	469.857574	-143.715714	357.636627	549.413147	-331.739899	198.789627	439.108093	-362.657623	221.149551	392.253510	-248.226303	67.673080	395.280670	36.274258	607.576111	104.243118	57.123489	501.553955	164.752167	66.231903	303.243011	108.447037	76.297150	76.996696	192.405075	32.783371	53.962708	247.311935	237.788010	42.165806	237.322235
218	2.17000000	40.645180	1463.044189	475.654144	50.471310	1477.032715	79.458015	-49.043530	1558.125488	271.431152	112.928841	1456.748535	277.085480	-1.035958	1157.355591	587.873718	13.193109	1136.246094	-15.657715	73.419697	886.900208	591.946167	45.376842	871.402222	7.528565	87.285713	991.409180	410.340546	101.512421	994.572876	184.833725	-122.433975	1026.863892	280.393860	-118.759964	1342.076050	259.715820	163.038574	1262.528442	281.241272	17.010851	601.587952	518.523743	1.869830	504.833130	469.751465	-122.386757	359.658417	549.085754	-311.718018	202.181931	438.781128	-343.049469	224.276672	391.852478	-227.370605	71.926720	395.952026	40.836697	608.005005	103.161568	60.264610	501.698456	163.799438	67.667786	303.125183	107.632446	76.346558	77.004547	192.384735	32.813541	54.037506	247.310547	237.895096	41.920319	237.316849
219	2.18000000	48.728275	1463.458252	475.275452	60.584736	1477.655640	78.803818	-39.733795	1558.893799	270.330811	122.211441	1457.580078	276.496674	4.763024	1157.296265	586.342590	28.439322	1136.759766	-17.229046	76.891336	886.120483	590.044556	63.814421	872.400848	6.918995	97.333061	992.089233	408.792114	110.341866	995.134399	182.978973	-113.224045	1027.267090	279.607391	-109.273529	1342.870361	258.132416	172.545654	1263.425049	280.375732	35.359531	602.995789	518.078247	23.001596	506.111267	469.534058	-101.104630	361.850586	548.571777	-290.618896	204.400864	438.230896	-322.533295	226.126328	391.277252	-204.885712	75.422615	395.840973	45.672150	608.415833	102.132790	63.638153	501.853912	162.894440	69.292030	303.032349	106.847404	76.407188	77.016083	192.358536	32.838596	54.124966	247.292435	237.980545	41.697655	237.322937
220	2.19000000	56.828827	1463.741699	474.957489	70.464211	1478.313110	78.199821	-30.445488	1559.628784	269.390228	131.428848	1458.323975	275.988312	10.491982	1157.147339	584.790039	43.763168	1137.390991	-18.652647	80.278137	885.289520	588.106140	82.389294	873.584625	6.390742	107.340721	992.833862	407.239044	119.064148	995.683838	181.091736	-104.081589	1027.639893	278.945160	-99.881233	1343.643311	256.706085	181.941879	1264.244385	279.489044	53.577328	604.636841	517.588440	43.908039	507.695312	469.188110	-79.781975	363.968750	547.872314	-268.501251	205.408203	437.456879	-301.128448	226.671112	390.528748	-180.881531	78.089867	395.005280	50.763268	608.803406	101.179077	67.259026	502.016418	162.061569	71.105118	302.965881	106.139252	76.491058	77.035553	192.343933	32.863491	54.225567	247.269211	238.052734	41.495609	237.347397
221	2.20000000	64.978493	1463.931519	474.668793	80.127769	1479.037598	77.634933	-21.191895	1560.322021	268.586182	140.586639	1458.982788	275.546295	16.177816	1156.947021	583.194031	59.127926	1138.176270	-19.916452	83.584406	884.445374	586.127930	101.057407	874.997131	5.944314	117.311577	993.646667	405.654694	127.707481	996.240540	179.175461	-94.981979	1028.016724	278.407074	-90.575378	1344.383789	255.445282	191.221359	1264.979370	278.564636	71.669640	606.437439	517.025146	64.546059	509.502502	468.696136	-58.344307	365.800140	546.985840	-245.425583	205.201889	436.455017	-278.842041	225.899902	389.593811	-155.449966	79.909744	393.561493	56.076756	609.157593	100.322403	71.120743	502.178101	161.324387	73.087952	302.924591	105.542595	76.608261	77.066483	192.359650	32.893089	54.337704	247.253815	238.122757	41.309986	237.393631
222	2.21000000	73.200241	1464.052368	474.387024	89.602745	1479.845825	77.102669	-11.983858	1560.966553	267.896790	149.685989	1459.559570	275.155334	21.846560	1156.720215	581.543701	74.488579	1139.137085	-21.019472	86.820505	883.613129	584.108093	119.775272	876.664215	5.578500	127.246674	994.517029	404.023285	136.287582	996.807434	177.245331	-85.906555	1028.412964	277.990540	-81.350594	1345.081421	254.350906	200.379181	1265.619385	277.591278	89.621422	608.340027	516.363342	84.873398	511.464081	468.044342	-36.751011	367.196930	545.915649	-221.447296	203.809036	435.221649	-255.677643	223.820023	388.452911	-128.669800	80.902496	391.653320	61.570625	609.466614	99.579834	75.197807	502.328827	160.699142	75.198929	302.905457	105.071899	76.764069	77.110451	192.420853	32.930923	54.458813	247.256607	238.201111	41.136330	237.461349
223	2.22000000	81.508133	1464.116943	474.099426	98.922096	1480.739258	76.601730	-2.826492	1561.557861	267.305145	158.724976	1460.058716	274.799438	27.523193	1156.479248	579.838135	89.793510	1140.278076	-21.972597	90.003216	882.804504	582.045898	138.504826	878.593842	5.289926	137.148026	995.424805	402.341156	144.814789	997.375977	175.321136	-76.842651	1028.822388	277.689575	-72.201668	1345.725586	253.413925	209.416229	1266.156006	276.563263	107.394119	610.306213	515.585693	104.849632	513.530273	467.223053	-14.989204	368.078766	544.671265	-196.612823	201.280167	433.755707	-231.642258	220.460770	387.088806	-100.612732	81.119392	389.428833	67.199608	609.721436	98.958061	79.448364	502.458832	160.191101	77.378952	302.905396	104.721992	76.956505	77.166969	192.534882	32.979187	54.586948	247.282669	238.294983	40.971210	237.547073
224	2.23000000	89.908127	1464.126831	473.800690	108.120285	1481.706909	76.134491	6.280745	1562.092407	266.799225	167.703415	1460.484863	274.462280	33.229450	1156.224121	578.084717	104.987396	1141.587524	-22.797289	93.155846	882.019806	579.942139	157.215607	880.778412	5.072937	147.020630	996.346497	400.616028	153.302963	997.931946	173.421265	-67.781685	1029.218140	277.495422	-63.120640	1346.303833	252.615479	218.342392	1266.586548	275.479736	124.929550	612.312317	514.683472	124.437233	515.665894	466.225861	6.944776	368.417114	543.264038	-170.958374	197.683578	432.060760	-206.745697	215.874557	385.493317	-71.351044	80.638390	387.026184	72.918938	609.917603	98.451752	83.817314	502.560333	159.794800	79.567787	302.921997	104.473831	77.173843	77.234734	192.698685	33.039383	54.723068	247.330063	238.407440	40.812843	237.644501
225	2.24000000	98.399551	1464.075317	473.489868	117.229927	1482.726440	75.705170	15.341170	1562.564941	266.370483	176.627350	1460.840942	274.127838	38.981327	1155.944336	576.296326	120.015381	1143.038574	-23.522234	96.306831	881.248291	577.799103	175.884010	883.197968	4.920059	156.871918	997.259827	398.864685	161.772156	998.458191	171.560989	-58.717224	1029.561279	277.397583	-54.096485	1346.801880	251.930908	227.177063	1266.913696	274.344238	142.158920	614.339478	513.655090	143.601105	517.840637	465.049316	29.055422	368.217133	541.701050	-144.509460	193.099731	430.147034	-180.996826	210.135788	383.668640	-40.964378	79.559647	384.565125	78.688553	610.055115	98.045364	88.243454	502.628326	159.496078	81.722847	302.954010	104.301086	77.396782	77.311508	192.899963	33.114098	54.872345	247.389938	238.537567	40.660809	237.745422
